<svg clip-rule="evenodd" fill-rule="evenodd" stroke-linejoin="round" stroke-miterlimit="2" version="1.1" viewBox="0 0 1102 395" xml:space="preserve" xmlns="http://www.w3.org/2000/svg" xmlns:serif="http://www.serif.com/">
    <g transform="translate(-11242 -817.73)">
        <g transform="matrix(5.5556 0 0 5.5556 9900 0)" serif:id="Page 3">
            <rect width="792" height="612" fill="none"></rect>
            
                <g transform="translate(316.89 186.98)">
                    <path d="m0-7.485c0.011-0.087 0.076-0.163 0.195-0.163h0.174c0.087 0 0.152 0.044 0.184 0.109l2.387 5.12h0.033l2.386-5.12c0.033-0.065 0.087-0.109 0.185-0.109h0.173c0.12 0 0.185 0.076 0.196 0.163l1.28 7.291c0.033 0.151-0.054 0.249-0.195 0.249h-0.988c-0.097 0-0.184-0.087-0.206-0.163l-0.64-4.111h-0.033l-1.898 4.263c-0.022 0.065-0.087 0.119-0.185 0.119h-0.195c-0.098 0-0.152-0.054-0.184-0.119l-1.92-4.263h-0.033l-0.629 4.111c-0.011 0.076-0.098 0.163-0.195 0.163h-0.977c-0.141 0-0.228-0.098-0.206-0.249l1.291-7.291z" fill="currentColor" fill-rule="nonzero"></path>
                </g>
                <g transform="translate(330.68 181.92)">
                    <path d="m0 2.517-1.084-2.387h-0.033l-1.063 2.387h2.18zm-4.687 2.311 3.375-7.302c0.032-0.065 0.086-0.119 0.184-0.119h0.108c0.109 0 0.152 0.054 0.185 0.119l3.341 7.302c0.065 0.141-0.021 0.282-0.184 0.282h-0.944c-0.163 0-0.239-0.065-0.315-0.217l-0.531-1.172h-3.244l-0.532 1.172c-0.043 0.108-0.141 0.217-0.314 0.217h-0.944c-0.163 0-0.249-0.141-0.185-0.282" fill="currentColor" fill-rule="nonzero"></path>
                </g>
                <g transform="translate(335.58 186.83)">
                    <path d="m0-7.182c0-0.108 0.098-0.206 0.206-0.206h1.009c0.109 0 0.206 0.098 0.206 0.206v7.182c0 0.109-0.097 0.206-0.206 0.206h-1.009c-0.108 0-0.206-0.097-0.206-0.206v-7.182z" fill="currentColor" fill-rule="nonzero"></path>
                </g>
                <g transform="translate(340.38 186.95)">
                    <path d="m0-7.421c0-0.109 0.098-0.195 0.206-0.195h0.272l4.513 4.795h0.01v-4.481c0-0.108 0.087-0.206 0.207-0.206h0.998c0.108 0 0.206 0.098 0.206 0.206v7.301c0 0.109-0.098 0.196-0.206 0.196h-0.261l-4.535-4.98h-0.011v4.665c0 0.109-0.087 0.206-0.206 0.206h-0.987c-0.108 0-0.206-0.097-0.206-0.206v-7.301z" fill="currentColor" fill-rule="nonzero"></path>
                </g>
                <g transform="translate(350.18 186.83)">
                    <path d="m0-7.182c0-0.108 0.087-0.206 0.206-0.206h4.416c0.119 0 0.206 0.098 0.206 0.206v0.89c0 0.108-0.087 0.206-0.206 0.206h-3.212v1.779h2.68c0.109 0 0.206 0.098 0.206 0.206v0.9c0 0.12-0.097 0.206-0.206 0.206h-2.68v1.899h3.212c0.119 0 0.206 0.098 0.206 0.206v0.89c0 0.109-0.087 0.206-0.206 0.206h-4.416c-0.119 0-0.206-0.097-0.206-0.206v-7.182z" fill="currentColor" fill-rule="nonzero"></path>
                </g>
                <g transform="translate(365.47 181.92)">
                    <path d="m0 2.517-1.084-2.387h-0.033l-1.063 2.387h2.18zm-4.687 2.311 3.375-7.302c0.032-0.065 0.086-0.119 0.184-0.119h0.108c0.109 0 0.152 0.054 0.185 0.119l3.341 7.302c0.065 0.141-0.021 0.282-0.184 0.282h-0.944c-0.163 0-0.239-0.065-0.315-0.217l-0.531-1.172h-3.244l-0.532 1.172c-0.043 0.108-0.141 0.217-0.314 0.217h-0.944c-0.163 0-0.249-0.141-0.185-0.282" fill="currentColor" fill-rule="nonzero"></path>
                </g>
                <g transform="translate(373.01 180.76)">
                    <path d="m0 4.947c1.411 0 2.441-1.063 2.441-2.484 0-1.411-1.03-2.474-2.441-2.474h-1.237v4.958h1.237zm-2.636-6.064c0-0.109 0.087-0.207 0.195-0.207h2.571c2.094 0 3.808 1.704 3.808 3.787 0 2.105-1.714 3.808-3.808 3.808h-2.571c-0.108 0-0.195-0.098-0.195-0.206v-7.182z" fill="currentColor" fill-rule="nonzero"></path>
                </g>
                <g transform="translate(385.14 182.75)">
                    <path d="m0 1.042h-1.627c-0.109 0-0.206-0.098-0.206-0.207v-0.607c0-0.108 0.097-0.206 0.206-0.206h1.627v-1.638c0-0.109 0.098-0.196 0.206-0.196h0.607c0.109 0 0.207 0.087 0.207 0.196v1.638h1.638c0.109 0 0.195 0.098 0.195 0.206v0.607c0 0.109-0.086 0.207-0.195 0.207h-1.638v1.616c0 0.109-0.098 0.196-0.207 0.196h-0.607c-0.108 0-0.206-0.087-0.206-0.196v-1.616z" fill="currentColor" fill-rule="nonzero"></path>
                </g>
                <g transform="translate(397.53 180.76)">
                    <path d="m0 4.947c1.41 0 2.441-1.063 2.441-2.484 0-1.411-1.031-2.474-2.441-2.474h-1.237v4.958h1.237zm-2.636-6.064c0-0.109 0.087-0.207 0.195-0.207h2.571c2.094 0 3.808 1.704 3.808 3.787 0 2.105-1.714 3.808-3.808 3.808h-2.571c-0.108 0-0.195-0.098-0.195-0.206v-7.182z" fill="currentColor" fill-rule="nonzero"></path>
                </g>
                <g transform="translate(404.3 186.83)">
                    <path d="m0-7.182c0-0.108 0.087-0.206 0.206-0.206h4.416c0.119 0 0.206 0.098 0.206 0.206v0.89c0 0.108-0.087 0.206-0.206 0.206h-3.212v1.779h2.68c0.109 0 0.206 0.098 0.206 0.206v0.9c0 0.12-0.097 0.206-0.206 0.206h-2.68v1.899h3.212c0.119 0 0.206 0.098 0.206 0.206v0.89c0 0.109-0.087 0.206-0.206 0.206h-4.416c-0.119 0-0.206-0.097-0.206-0.206v-7.182z" fill="currentColor" fill-rule="nonzero"></path>
                </g>
                <g transform="translate(411.65 180.5)">
                    <path d="m0 5.469 0.391-0.673c0.087-0.152 0.271-0.152 0.368-0.076 0.054 0.033 0.933 0.673 1.638 0.673 0.565 0 0.988-0.369 0.988-0.836 0-0.553-0.467-0.933-1.378-1.301-1.02-0.412-2.04-1.064-2.04-2.344 0-0.965 0.717-2.083 2.442-2.083 1.106 0 1.952 0.564 2.169 0.727 0.109 0.065 0.141 0.249 0.066 0.358l-0.413 0.618c-0.087 0.131-0.25 0.217-0.379 0.131-0.087-0.054-0.912-0.597-1.509-0.597-0.618 0-0.954 0.412-0.954 0.759 0 0.51 0.401 0.857 1.28 1.215 1.052 0.424 2.267 1.053 2.267 2.452 0 1.118-0.965 2.148-2.495 2.148-1.367 0-2.17-0.64-2.387-0.846-0.097-0.097-0.152-0.152-0.054-0.325" fill="currentColor" fill-rule="nonzero"></path>
                </g>
                <g transform="translate(419.38 186.83)">
                    <path d="m0-7.182c0-0.108 0.098-0.206 0.206-0.206h1.009c0.109 0 0.206 0.098 0.206 0.206v7.182c0 0.109-0.097 0.206-0.206 0.206h-1.009c-0.108 0-0.206-0.097-0.206-0.206v-7.182z" fill="currentColor" fill-rule="nonzero"></path>
                </g>
                <g transform="translate(427.54 187.13)">
                    <path d="m0-7.8c0.977 0 1.91 0.379 2.647 1.009 0.087 0.087 0.098 0.217 0.011 0.303l-0.672 0.706c-0.087 0.086-0.185 0.086-0.282 0-0.467-0.413-1.042-0.629-1.639-0.629-1.356 0-2.43 1.16-2.43 2.516 0 1.346 1.074 2.485 2.441 2.485 0.608 0 1.074-0.184 1.291-0.271v-0.923h-0.867c-0.12 0-0.207-0.086-0.207-0.195v-0.857c0-0.119 0.087-0.206 0.207-0.206h2.083c0.108 0 0.194 0.098 0.194 0.206v2.777c0 0.087-0.043 0.141-0.086 0.174 0 0-1.118 0.705-2.691 0.705-2.159 0-3.895-1.714-3.895-3.883 0-2.17 1.736-3.917 3.895-3.917" fill="currentColor" fill-rule="nonzero"></path>
                </g>
                <g transform="translate(433.32 186.95)">
                    <path d="m0-7.421c0-0.109 0.098-0.195 0.206-0.195h0.272l4.513 4.795h0.01v-4.481c0-0.108 0.087-0.206 0.207-0.206h0.998c0.108 0 0.206 0.098 0.206 0.206v7.301c0 0.109-0.098 0.196-0.206 0.196h-0.261l-4.535-4.98h-0.011v4.665c0 0.109-0.087 0.206-0.206 0.206h-0.987c-0.108 0-0.206-0.097-0.206-0.206v-7.301z" fill="currentColor" fill-rule="nonzero"></path>
                </g>
                <g transform="translate(299.91 169.8)">
                    <path d="m0-11.182-9.546-5.685 9.546 22.552v-16.867z" fill="currentColor" fill-rule="nonzero"></path>
                </g>
                <g transform="translate(282.42 200.87)">
                    <path d="m0 4.44h8.514l2.851-4.44h-11.365v4.44z" fill="currentColor" fill-rule="nonzero"></path>
                </g>
                <g transform="translate(287.29 168.85)">
                    <path d="M0,-8.621L-3.35,0L3.35,0L0,-8.621Z" fill="currentColor" fill-rule="nonzero"></path>
                </g>
                <g transform="translate(260.82 155.6)">
                    <path d="M0,2.612L-18.499,-8.413L-5.595,11.025L0,2.612Z" fill="currentColor" fill-rule="nonzero"></path>
                </g>
                <g transform="translate(292.69 197.06)">
                    <path d="m0-22.937h-10.823l-1.692 4.4 8e-3 -0.058-0.024 0.061h-6.773l7.795-18.341-12.142-7.248v25.589h-6.36v-12.832l-5.682 8.768v0.037h-3.538v-0.037l-5.72-8.843 0.038 12.907h-6.308l4.36 6.724h9.617c8.054 0 13.811 5.231 13.811 12.719 0 7.602-5.757 12.87-13.811 12.87h-10.25l4.747 7.407h9.165c5.482 0 9.885-2.452 12.146-6.409 0.017-0.017 0.035-0.034 0.052-0.052v6.421h19.336l4.737-7.367h-19.317v-25.589h19.171l0.172-0.045 4.301-6.679h-5.284l-1.732-4.403z" fill="currentColor" fill-rule="nonzero"></path>
                </g>
                <g transform="translate(262.82 198.12)">
                    <path d="m0-0.151c0-3.951-3.199-6.999-7.376-6.999h-3.913v14.149h3.913c4.177 0 7.376-3.085 7.376-7.15" fill="currentColor" fill-rule="nonzero"></path>
                </g>
                <g transform="matrix(0 1 1 0 291.24 186.62)">
                    <path d="m4.159-8.825h4.666v9.983l-4.666 3.001v-12.984z" fill="currentColor" fill-rule="nonzero"></path>
                </g>
                <g transform="translate(245.17 210.8)">
                    <path d="M0,0.035L0.023,0.035L0,0L0,0.035Z" fill="currentColor" fill-rule="nonzero"></path>
                </g>
            
        </g>
    </g>
</svg>