<svg xmlns="http://www.w3.org/2000/svg" version="1.1" xmlns:xlink="http://www.w3.org/1999/xlink" xmlns:svgjs="http://svgjs.dev/svgjs" width="1000" height="1000"><g clip-path="url(#SvgjsClipPath1078)"><rect width="1000" height="1000" fill="#0d294b"></rect><g transform="matrix(6.299212598425197,0,0,6.299212598425197,172.44094488188972,100)"><svg xmlns="http://www.w3.org/2000/svg" version="1.1" xmlns:xlink="http://www.w3.org/1999/xlink" xmlns:svgjs="http://svgjs.dev/svgjs" width="104" height="127"><svg width="104" height="127" viewBox="0 0 104 127" fill="none" xmlns="http://www.w3.org/2000/svg">
<g clip-path="url(#clip0_122_450)">
<path d="M104 20.4296L87.0098 10.2722L104 50.5817V20.4296Z" fill="#52C1B1"></path>
<path d="M72.8704 103.879H88.0227L93.0953 95.9373H72.8704V103.879Z" fill="#52C1B1"></path>
<path d="M81.5369 23.3013L75.574 38.7096H87.4998L81.5369 23.3013Z" fill="#52C1B1"></path>
<path d="M1.51123 0L24.4726 34.7468L34.4299 19.7076L1.51123 0Z" fill="#52C1B1"></path>
<path d="M91.1429 48.1366H71.8819L68.8759 56.0049V55.8983L68.8432 56.0049H56.7867L70.6566 23.2191L49.0512 10.2639V20.1587V55.9967H37.738V33.0565L27.6255 48.7274V48.793H21.3358V48.7274L11.158 32.9252L11.2234 55.9967H0L7.75997 68.0165H24.8728C39.2083 68.0165 49.4515 77.3617 49.4515 90.7517C49.4515 104.142 39.2083 113.758 24.8728 113.758H6.63274L15.0789 127H31.3911C41.1442 127 48.9777 122.619 53.0047 115.546C53.0374 115.513 53.0701 115.489 53.0946 115.456V126.934H87.4998L95.9296 113.766H61.557V68.033H95.6682L95.9705 67.9509L103.624 56.0131H94.2224L91.1429 48.1449V48.1366Z" fill="#52C1B1"></path>
<path d="M37.9994 90.7599C37.9994 83.6957 32.306 78.2478 24.8728 78.2478H17.9133V103.535H24.8728C32.306 103.535 37.9994 98.021 37.9994 90.7517" fill="#52C1B1"></path>
<path d="M72.8704 77.9116V86.2558H90.6366L95.9788 77.9116H72.8704Z" fill="#52C1B1"></path>
<path d="M6.5918 113.758H6.63264L6.5918 113.7V113.758Z" fill="#52C1B1"></path>
</g>
<defs>
<clipPath id="clip0_122_450">
<rect width="104" height="127" fill="white"></rect>
</clipPath>
<clipPath id="SvgjsClipPath1078"><rect width="1000" height="1000" x="0" y="0" rx="350" ry="350"></rect></clipPath></defs>
</svg></svg></g></g></svg>