<svg width="139" height="81" viewBox="0 0 139 81" fill="none" xmlns="http://www.w3.org/2000/svg">
<path d="M55.3195 15.7418L51.2573 26.1624H59.3817L55.3195 15.7418Z" fill="currentColor"/>
<path d="M1.10791 0L16.618 23.4279L17.5782 22.0976L23.4129 13.3029L1.10791 0Z" fill="currentColor"/>
<path d="M33.3098 7.31661V37.8394H25.6286V22.3933L18.7598 32.9617V33.0356H14.4761V32.9617L7.60733 22.3193V37.8394H0L24.2992 52.4726L63.8868 37.8394L61.8188 32.5182H48.8199L46.7519 37.8394V37.6916L46.678 37.8394H38.5537L47.9336 15.6679L33.3098 6.94708V7.31661Z" fill="currentColor"/>
<path d="M99.7817 22.3193C99.7817 17.5894 95.9411 13.8942 90.9188 13.8942H86.1919V30.9662H90.9188C95.9411 30.9662 99.7817 27.271 99.7817 22.3193Z" fill="currentColor"/>
<path d="M138.335 37.8394H114.996V6.94708L102.957 11.3814C105.838 14.1159 107.537 17.885 107.537 22.3193C107.537 31.4836 100.594 37.8394 90.8448 37.8394H78.4368V18.4763L59.0122 6.79927L75.9256 46.6341H95.2763C101.85 46.6341 107.167 43.6779 109.9 38.8741V46.6341H133.239L138.926 37.7655H138.261L138.335 37.8394Z" fill="currentColor"/>
<path d="M136.415 25.8668H122.677V31.188H132.943L136.415 25.8668Z" fill="currentColor"/>
<path d="M138.335 13.6724H122.677V19.2892H134.716L138.335 13.6724Z" fill="currentColor"/>
<path d="M1.62497 61.6369C1.62497 61.563 1.69883 61.489 1.84655 61.489H2.06812C2.14198 61.489 2.21583 61.489 2.28969 61.6369L4.94857 67.2536L7.53358 61.6369C7.53358 61.6369 7.60744 61.489 7.75515 61.489H7.97673C8.12444 61.489 8.1983 61.563 8.1983 61.6369L9.60159 69.6186C9.60159 69.7664 9.60159 69.9142 9.38002 69.9142H8.27216C8.1983 69.9142 8.05058 69.8403 8.05058 69.7664L7.31201 65.2582L5.244 69.9142C5.244 69.9142 5.17014 70.062 5.02242 70.062H4.80085C4.65314 70.062 4.65314 70.062 4.57928 69.9142L2.43741 65.2582L1.77269 69.7664C1.77269 69.8403 1.69883 69.9142 1.55112 69.9142H0.443252C0.295537 69.9142 0.22168 69.8403 0.22168 69.6186L1.62497 61.563V61.6369Z" fill="currentColor"/>
<path d="M16.7657 67.0319L15.584 64.3713L14.4023 67.0319H16.7657ZM11.6695 69.6186L15.3624 61.563C15.3624 61.563 15.4363 61.4151 15.584 61.4151H15.7317C15.8794 61.4151 15.8794 61.4151 15.9533 61.563L19.6462 69.6186C19.72 69.7664 19.6462 69.9142 19.4246 69.9142H18.3906C18.2429 69.9142 18.0952 69.9142 18.0213 69.6925L17.4304 68.4361H13.8853L13.2944 69.7664C13.2944 69.9142 13.1467 69.9881 12.9251 69.9881H11.8911C11.7434 69.9881 11.5957 69.8403 11.6695 69.6925" fill="currentColor"/>
<path d="M23.4461 61.4479L22.3383 61.4499C22.2159 61.4501 22.1169 61.5495 22.1171 61.672L22.1309 69.5798C22.1311 69.7023 22.2305 69.8013 22.3528 69.8011L23.4607 69.7992C23.5831 69.799 23.6821 69.6995 23.6819 69.5771L23.6681 61.6693C23.6679 61.5468 23.5685 61.4477 23.4461 61.4479Z" fill="currentColor"/>
<path d="M27.4752 61.6369C27.4752 61.489 27.6229 61.4151 27.6968 61.4151H27.9922L32.9407 66.6624V61.7108C32.9407 61.5629 33.0145 61.489 33.1623 61.489H34.2701C34.4178 61.489 34.4917 61.5629 34.4917 61.7108V69.7664C34.4917 69.9142 34.4178 69.9881 34.2701 69.9881H33.9747L28.9524 64.5192V69.6186C28.9524 69.7664 28.8785 69.8403 28.7308 69.8403H27.6229C27.4752 69.8403 27.4014 69.7664 27.4014 69.6186V61.563L27.4752 61.6369Z" fill="currentColor"/>
<path d="M38.2583 61.7108C38.2583 61.563 38.3322 61.489 38.4799 61.489H43.3545C43.5022 61.489 43.576 61.563 43.576 61.7108V62.6715C43.576 62.8193 43.5022 62.8932 43.3545 62.8932H39.8093V64.8887H42.7636C42.9113 64.8887 42.9852 64.9626 42.9852 65.1104V66.0712C42.9852 66.219 42.9113 66.2929 42.7636 66.2929H39.8093V68.3622H43.3545C43.5022 68.3622 43.576 68.4361 43.576 68.5839V69.5447C43.576 69.6925 43.5022 69.7664 43.3545 69.7664H38.4799C38.3322 69.7664 38.2583 69.6925 38.2583 69.5447V61.6369V61.7108Z" fill="currentColor"/>
<path d="M55.0979 66.958L53.9162 64.2974L52.7344 66.958H55.0979ZM49.9278 69.4708L53.6207 61.4151C53.6207 61.4151 53.6946 61.2673 53.8423 61.2673H53.99C54.1377 61.2673 54.1377 61.2673 54.2116 61.4151L57.9045 69.4708C57.9045 69.6186 57.9045 69.7664 57.6829 69.7664H56.6489C56.5012 69.7664 56.3535 69.7664 56.2796 69.5447L55.6887 68.2883H52.1436L51.5527 69.6186C51.5527 69.7664 51.405 69.8403 51.1834 69.8403H50.1494C50.0017 69.8403 49.854 69.6925 49.9278 69.5447" fill="currentColor"/>
<path d="M63.3698 68.2883C64.9208 68.2883 66.0287 67.1058 66.0287 65.5538C66.0287 64.0018 64.847 62.8193 63.3698 62.8193H62.0404V68.2883H63.4437H63.3698ZM60.4155 61.6369C60.4155 61.489 60.4894 61.4151 60.6371 61.4151H63.4437C65.7333 61.4151 67.6536 63.2628 67.6536 65.5538C67.6536 67.8449 65.8071 69.7664 63.4437 69.7664H60.6371C60.4894 69.7664 60.4155 69.6925 60.4155 69.5447V61.6369Z" fill="currentColor"/>
<path d="M76.6641 66.1451H74.8915C74.7438 66.1451 74.6699 66.0712 74.6699 65.9234V65.2582C74.6699 65.1104 74.7438 65.0365 74.8915 65.0365H76.6641V63.2628C76.6641 63.115 76.7379 63.0411 76.8856 63.0411H77.5504C77.6981 63.0411 77.7719 63.115 77.7719 63.2628V65.0365H79.5445C79.6922 65.0365 79.7661 65.1104 79.7661 65.2582V65.9234C79.7661 66.0712 79.6922 66.1451 79.5445 66.1451H77.7719V67.9188C77.7719 68.0666 77.6981 68.1405 77.5504 68.1405H76.8856C76.7379 68.1405 76.6641 68.0666 76.6641 67.9188V66.1451Z" fill="currentColor"/>
<path d="M90.3278 68.2144C91.8788 68.2144 92.9867 67.0319 92.9867 65.4799C92.9867 63.9279 91.8788 62.7454 90.3278 62.7454H88.9984V68.2144H90.4017H90.3278ZM87.3735 61.563C87.3735 61.4151 87.4474 61.3412 87.5951 61.3412H90.4017C92.6913 61.3412 94.6116 63.1889 94.6116 65.4799C94.6116 67.771 92.7651 69.6925 90.4017 69.6925H87.5951C87.4474 69.6925 87.3735 69.6186 87.3735 69.4708V61.563Z" fill="currentColor"/>
<path d="M97.7139 61.563C97.7139 61.4151 97.7877 61.3412 97.9354 61.3412H102.81C102.958 61.3412 103.032 61.4151 103.032 61.563V62.5237C103.032 62.6715 102.958 62.7454 102.81 62.7454H99.2649V64.7409H102.219C102.367 64.7409 102.441 64.8148 102.441 64.9626V65.9234C102.441 66.0712 102.367 66.1451 102.219 66.1451H99.2649V68.2144H102.81C102.958 68.2144 103.032 68.2883 103.032 68.4361V69.3969C103.032 69.5447 102.958 69.6186 102.81 69.6186H97.9354C97.7877 69.6186 97.7139 69.5447 97.7139 69.3969V61.489V61.563Z" fill="currentColor"/>
<path d="M105.838 68.51L106.281 67.771C106.355 67.6232 106.577 67.6232 106.725 67.6971C106.725 67.6971 107.759 68.4361 108.497 68.4361C109.236 68.4361 109.605 67.9927 109.605 67.5493C109.605 67.1058 109.088 66.5146 108.054 66.1451C106.946 65.7016 105.838 64.9626 105.764 63.5584C105.764 62.5237 106.577 61.2673 108.423 61.2673C109.605 61.2673 110.565 61.8586 110.787 62.0803C110.934 62.0803 110.934 62.3759 110.861 62.4498L110.417 63.115C110.344 63.2628 110.122 63.3367 109.974 63.2628C109.9 63.2628 108.94 62.5976 108.349 62.5976C107.759 62.5976 107.315 63.0411 107.315 63.4106C107.315 64.0018 107.759 64.3713 108.719 64.7409C109.9 65.1843 111.23 65.9234 111.23 67.4015C111.23 68.6578 110.196 69.7664 108.497 69.7664C107.02 69.7664 106.134 69.1013 105.838 68.8796C105.764 68.8057 105.69 68.7317 105.838 68.51Z" fill="currentColor"/>
<path d="M114.553 61.2673H115.661C115.809 61.2673 115.883 61.3412 115.883 61.489V69.3969C115.883 69.5447 115.809 69.6186 115.661 69.6186H114.553C114.405 69.6186 114.332 69.5447 114.332 69.3969V61.489C114.332 61.3412 114.405 61.2673 114.553 61.2673Z" fill="currentColor"/>
<path d="M123.269 61.1195C124.376 61.1195 125.41 61.563 126.149 62.2281C126.223 62.302 126.223 62.4498 126.149 62.5237L125.41 63.3367C125.337 63.4106 125.189 63.4106 125.115 63.3367C124.598 62.8932 123.933 62.6715 123.342 62.6715C121.865 62.6715 120.684 63.9279 120.684 65.4799C120.684 67.0319 121.865 68.2144 123.342 68.2144C124.82 68.2144 124.524 67.9927 124.746 67.9188V66.8841H123.786C123.638 66.8841 123.564 66.8102 123.564 66.6624V65.7016C123.564 65.5538 123.638 65.4799 123.786 65.4799H126.075C126.223 65.4799 126.297 65.5538 126.297 65.7016V68.7318C126.297 68.8057 126.297 68.8796 126.223 68.9535C126.223 68.9535 124.967 69.7664 123.269 69.7664C120.905 69.7664 118.985 67.9188 118.985 65.4799C118.985 63.115 120.905 61.1934 123.269 61.1934" fill="currentColor"/>
<path d="M129.62 61.3412C129.62 61.1934 129.694 61.1195 129.842 61.1195H130.137L135.086 66.3668V61.4151C135.086 61.2673 135.16 61.1934 135.307 61.1934H136.415C136.563 61.1934 136.637 61.2673 136.637 61.4151V69.4708C136.637 69.6186 136.563 69.6925 136.415 69.6925H136.12L131.097 64.2235V69.323C131.097 69.4708 131.024 69.5447 130.876 69.5447H129.768C129.62 69.5447 129.546 69.4708 129.546 69.323V61.2673L129.62 61.3412Z" fill="currentColor"/>
</svg>
