<svg width="255" height="426" viewBox="0 0 255 426" fill="none" xmlns="http://www.w3.org/2000/svg">
<g clip-path="url(#clip0_8_986)">
<path d="M50.6399 425.171L57.7625 409.738C57.8351 409.6 57.9479 409.487 58.1493 409.487H58.3749C58.6086 409.487 58.6972 409.6 58.7616 409.738L65.8198 425.171C65.9568 425.47 65.7715 425.768 65.4331 425.768H63.4429C63.1045 425.768 62.9434 425.631 62.7822 425.308L61.6623 422.831H54.8136L53.6936 425.308C53.605 425.534 53.3955 425.768 53.0329 425.768H51.0428C50.7044 425.768 50.5191 425.47 50.656 425.171H50.6399ZM60.5423 420.29L58.254 415.248H58.1815L55.9335 420.29H60.5423Z" fill="#A1BAE1"/>
<path d="M77.7769 410.268C77.6883 409.945 77.8655 409.719 78.1878 409.719H80.2988C80.4841 409.719 80.6695 409.881 80.7097 410.042L83.0947 419.191H83.1833L86.8252 409.744C86.8736 409.606 86.9864 409.493 87.212 409.493H87.6229C87.8485 409.493 87.9613 409.606 88.0096 409.744L91.6757 419.191H91.7643L94.1009 410.042C94.1493 409.881 94.3346 409.719 94.5119 409.719H96.6229C96.9452 409.719 97.1224 409.953 97.0338 410.268L92.707 425.677C92.6587 425.863 92.4814 426 92.2961 426H91.9255C91.716 426 91.579 425.887 91.5387 425.75L87.4376 415.359H87.3248L83.272 425.75C83.2075 425.887 83.1108 426 82.8852 426H82.5226C82.3373 426 82.152 425.863 82.1117 425.677L77.785 410.268H77.7769Z" fill="#A1BAE1"/>
<path d="M108.983 425.169L116.105 409.735C116.178 409.598 116.291 409.485 116.492 409.485H116.718C116.951 409.485 117.04 409.598 117.104 409.735L124.163 425.169C124.3 425.468 124.114 425.766 123.776 425.766H121.786C121.447 425.766 121.286 425.629 121.125 425.306L120.005 422.829H113.156L112.036 425.306C111.948 425.532 111.738 425.766 111.376 425.766H109.386C109.047 425.766 108.862 425.468 108.999 425.169H108.983ZM118.877 420.288L116.589 415.246H116.516L114.268 420.288H118.877Z" fill="#A1BAE1"/>
<path d="M138.222 410.147C138.222 409.913 138.4 409.711 138.657 409.711H145.208C147.956 409.711 150.204 411.914 150.204 414.641C150.204 416.746 148.81 418.473 146.811 419.272L149.954 425.096C150.115 425.395 149.954 425.758 149.567 425.758H147.158C146.948 425.758 146.836 425.645 146.787 425.548L143.742 419.473H141.204V425.322C141.204 425.548 140.994 425.758 140.769 425.758H138.657C138.408 425.758 138.222 425.548 138.222 425.322V410.139V410.147ZM144.95 417.029C146.167 417.029 147.222 415.972 147.222 414.689C147.222 413.471 146.167 412.462 144.95 412.462H141.22V417.029H144.95Z" fill="#A1BAE1"/>
<path d="M165.44 410.147C165.44 409.913 165.617 409.711 165.851 409.711H171.273C175.697 409.711 179.315 413.31 179.315 417.714C179.315 422.16 175.697 425.766 171.273 425.766H165.851C165.617 425.766 165.44 425.556 165.44 425.33V410.147ZM171.008 422.967C173.981 422.967 176.156 420.716 176.156 417.714C176.156 414.738 173.981 412.487 171.008 412.487H168.397V422.967H171.008Z" fill="#A1BAE1"/>
<path d="M193.375 423.515L194.196 422.095C194.382 421.773 194.768 421.773 194.978 421.934C195.091 422.006 196.944 423.354 198.435 423.354C199.627 423.354 200.521 422.571 200.521 421.587C200.521 420.417 199.538 419.61 197.613 418.836C195.461 417.965 193.31 416.585 193.31 413.882C193.31 411.841 194.817 409.477 198.467 409.477C200.803 409.477 202.592 410.671 203.043 411.018C203.277 411.155 203.341 411.543 203.18 411.777L202.31 413.084C202.125 413.358 201.778 413.543 201.512 413.358C201.327 413.245 199.587 412.099 198.33 412.099C197.073 412.099 196.315 412.971 196.315 413.705C196.315 414.786 197.161 415.512 199.015 416.27C201.238 417.166 203.801 418.497 203.801 421.45C203.801 423.814 201.762 425.992 198.531 425.992C195.647 425.992 193.947 424.637 193.495 424.201C193.286 423.991 193.173 423.878 193.383 423.515H193.375Z" fill="#A1BAE1"/>
<path d="M85.5036 285.315C85.5036 283.935 84.1258 282.919 82.6997 282.919H79.7024V287.816H83.0301C84.4078 287.816 85.5036 286.743 85.5036 285.315Z" fill="#A1BAE1"/>
<path d="M128.433 353.116C124.968 353.116 122.14 356.004 122.14 359.474C122.14 362.943 124.968 365.774 128.433 365.774C131.897 365.774 134.758 362.943 134.758 359.474C134.758 356.004 131.897 353.116 128.433 353.116Z" fill="#A1BAE1"/>
<path d="M82.8367 314.141H79.7024V326.719H82.8367C86.406 326.719 89.0166 324.024 89.0166 320.418C89.0166 316.836 86.406 314.141 82.8367 314.141Z" fill="#A1BAE1"/>
<path d="M132.067 277.78C132.067 276.32 130.802 275.109 129.343 275.109H124.864V280.587H129.343C130.802 280.587 132.067 279.321 132.067 277.78Z" fill="#A1BAE1"/>
<path d="M85.0121 277.425C85.0121 276.045 84.0533 275.085 82.6514 275.085H79.7104V279.902H82.6514C84.0533 279.902 85.0121 278.796 85.0121 277.425Z" fill="#A1BAE1"/>
<path d="M171.878 275.109C168.413 275.109 165.585 277.998 165.585 281.467C165.585 284.936 168.413 287.768 171.878 287.768C175.342 287.768 178.195 284.936 178.195 281.467C178.195 277.998 175.334 275.109 171.878 275.109Z" fill="#A1BAE1"/>
<path d="M172.957 314.117H168.478V319.595H172.957C174.416 319.595 175.673 318.328 175.673 316.787C175.673 315.327 174.408 314.117 172.957 314.117Z" fill="#A1BAE1"/>
<path d="M50.5996 248.187V392.704H204.107V248.187H50.5996ZM121.262 272.334C121.262 272.06 121.479 271.81 121.786 271.81H129.641C132.937 271.81 135.628 274.448 135.628 277.723C135.628 280.257 133.952 282.322 131.559 283.282L135.322 290.269C135.515 290.624 135.322 291.067 134.854 291.067H131.97C131.72 291.067 131.583 290.93 131.535 290.817L127.877 283.524H124.823V290.543C124.823 290.817 124.573 291.067 124.299 291.067H121.769C121.471 291.067 121.246 290.817 121.246 290.543V272.326L121.262 272.334ZM132.695 318.627C132.969 318.627 133.219 318.877 133.219 319.151V321.434C133.219 321.741 132.969 321.959 132.695 321.959H125.903V326.775H134.041C134.339 326.775 134.564 327.025 134.564 327.299V329.558C134.564 329.833 134.347 330.083 134.041 330.083H122.857C122.559 330.083 122.333 329.833 122.333 329.558V311.342C122.333 311.067 122.551 310.817 122.857 310.817H134.041C134.339 310.817 134.564 311.067 134.564 311.342V313.6C134.564 313.875 134.347 314.125 134.041 314.125H125.903V318.635H132.695V318.627ZM76.1573 272.334C76.1573 272.06 76.3829 271.81 76.681 271.81H82.9737C86.245 271.81 88.775 274.012 88.775 276.9C88.775 279.022 87.0426 280.668 85.7535 281.273C87.2118 281.741 89.3229 283.225 89.3229 285.759C89.3229 288.841 86.6881 291.067 83.3363 291.067H76.6891C76.3909 291.067 76.1653 290.817 76.1653 290.543V272.326L76.1573 272.334ZM82.4742 369.356C79.0095 369.356 76.9791 367.735 76.4312 367.21C76.1814 366.96 76.0445 366.823 76.2942 366.388L77.2853 364.685C77.5028 364.298 77.9702 364.298 78.2199 364.492C78.3569 364.572 80.5807 366.194 82.3694 366.194C83.7956 366.194 84.8672 365.258 84.8672 364.072C84.8672 362.668 83.6828 361.708 81.3784 360.772C78.792 359.724 76.2137 358.078 76.2137 354.827C76.2137 352.374 78.0266 349.542 82.3936 349.542C85.1975 349.542 87.3408 350.97 87.8887 351.382C88.1626 351.551 88.2432 352.011 88.0498 352.293L87.0104 353.858C86.7848 354.189 86.3739 354.407 86.0516 354.189C85.8341 354.052 83.7392 352.672 82.2325 352.672C80.6693 352.672 79.8153 353.721 79.8153 354.601C79.8153 355.891 80.8305 356.779 83.0543 357.682C85.7213 358.756 88.7991 360.353 88.7991 363.903C88.7991 366.734 86.3497 369.348 82.4742 369.348V369.356ZM83.1671 330.075H76.6568C76.3829 330.075 76.1653 329.825 76.1653 329.55V311.333C76.1653 311.059 76.3909 310.809 76.6568 310.809H83.1671C88.4688 310.809 92.8117 315.133 92.8117 320.41C92.8117 325.75 88.4688 330.067 83.1671 330.067V330.075ZM128.433 369.356C122.938 369.356 118.571 364.984 118.571 359.482C118.571 353.979 122.938 349.55 128.433 349.55C133.928 349.55 138.327 353.979 138.327 359.482C138.327 364.984 133.928 369.356 128.433 369.356ZM180.015 368.856C180.015 369.131 179.766 369.348 179.492 369.348H178.831L167.341 356.714H167.317V368.55C167.317 368.824 167.1 369.074 166.794 369.074H164.296C164.022 369.074 163.772 368.824 163.772 368.55V350.034C163.772 349.76 164.022 349.542 164.296 349.542H164.981L176.414 361.7H176.438V350.333C176.438 350.058 176.656 349.808 176.962 349.808H179.492C179.766 349.808 180.015 350.058 180.015 350.333V368.856ZM178.952 329.276C179.145 329.631 178.952 330.075 178.485 330.075H175.6C175.35 330.075 175.213 329.938 175.157 329.825L171.499 322.531H168.445V329.55C168.445 329.825 168.195 330.075 167.922 330.075H165.392C165.093 330.075 164.868 329.825 164.868 329.55V311.333C164.868 311.059 165.085 310.809 165.392 310.809H173.255C176.551 310.809 179.242 313.447 179.242 316.723C179.242 319.256 177.566 321.321 175.173 322.281L178.936 329.268L178.952 329.276ZM171.878 291.342C166.383 291.342 162.016 286.969 162.016 281.467C162.016 275.965 166.383 271.535 171.878 271.535C177.373 271.535 181.772 275.965 181.772 281.467C181.772 286.969 177.373 291.342 171.878 291.342Z" fill="#A1BAE1"/>
<path d="M137.626 248.639H176.567L254.698 74.5215L104.076 0L106.533 66.8411L152.403 46.9057L137.626 248.639Z" fill="#ADC937"/>
<path d="M137.626 248.639L152.403 46.9058L106.533 66.8411L0 113.118L77.3176 248.639H137.626Z" fill="#EECE5C"/>
</g>
<defs>
<clipPath id="clip0_8_986">
<rect width="254.698" height="426" fill="white"/>
</clipPath>
</defs>
</svg>
