<svg width="175" height="290" viewBox="0 0 175 290" fill="none" xmlns="http://www.w3.org/2000/svg">
<g clip-path="url(#clip0_8_300)">
<path d="M34.7941 289.435L39.6879 278.928C39.7378 278.835 39.8153 278.758 39.9537 278.758H40.1087C40.2692 278.758 40.3301 278.835 40.3744 278.928L45.224 289.435C45.3181 289.638 45.1908 289.841 44.9583 289.841H43.5909C43.3583 289.841 43.2476 289.748 43.1369 289.528L42.3674 287.842H37.6617L36.8922 289.528C36.8313 289.682 36.6874 289.841 36.4383 289.841H35.0709C34.8384 289.841 34.711 289.638 34.8051 289.435H34.7941ZM41.5979 286.112L40.0256 282.679H39.9758L38.4313 286.112H41.5979Z" fill="#D85E38"/>
<path d="M53.4395 279.29C53.3786 279.071 53.5004 278.917 53.7218 278.917H55.1722C55.2996 278.917 55.4269 279.027 55.4546 279.137L57.0933 285.365H57.1541L59.6564 278.933C59.6897 278.84 59.7672 278.763 59.9222 278.763H60.2045C60.3595 278.763 60.437 278.84 60.4702 278.933L62.9891 285.365H63.05L64.6555 279.137C64.6887 279.027 64.816 278.917 64.9378 278.917H66.3883C66.6097 278.917 66.7315 279.076 66.6706 279.29L63.6978 289.78C63.6645 289.907 63.5427 290 63.4154 290H63.1608C63.0168 290 62.9227 289.923 62.895 289.83L60.0772 282.756H59.9997L57.215 289.83C57.1708 289.923 57.1043 290 56.9493 290H56.7002C56.5729 290 56.4455 289.907 56.4179 289.78L53.445 279.29H53.4395Z" fill="#D85E38"/>
<path d="M74.8806 289.434L79.7745 278.928C79.8243 278.835 79.9018 278.758 80.0402 278.758H80.1952C80.3558 278.758 80.4167 278.835 80.461 278.928L85.3105 289.434C85.4047 289.638 85.2773 289.841 85.0448 289.841H83.6774C83.4449 289.841 83.3342 289.747 83.2234 289.528L82.4539 287.842H77.7483L76.9788 289.528C76.9179 289.681 76.7739 289.841 76.5248 289.841H75.1574C74.9249 289.841 74.7976 289.638 74.8917 289.434H74.8806ZM81.6789 286.112L80.1066 282.679H80.0568L78.5123 286.112H81.6789Z" fill="#D85E38"/>
<path d="M94.9709 279.208C94.9709 279.049 95.0927 278.911 95.2699 278.911H99.7707C101.658 278.911 103.203 280.411 103.203 282.267C103.203 283.701 102.245 284.876 100.872 285.42L103.031 289.385C103.142 289.588 103.031 289.835 102.766 289.835H101.11C100.966 289.835 100.889 289.758 100.856 289.692L98.7631 285.557H97.0193V289.539C97.0193 289.692 96.8753 289.835 96.7203 289.835H95.2699C95.0983 289.835 94.9709 289.692 94.9709 289.539V279.203V279.208ZM99.5935 283.893C100.429 283.893 101.155 283.173 101.155 282.3C101.155 281.471 100.429 280.784 99.5935 280.784H97.0304V283.893H99.5935Z" fill="#D85E38"/>
<path d="M113.672 279.208C113.672 279.049 113.793 278.911 113.954 278.911H117.68C120.719 278.911 123.205 281.361 123.205 284.36C123.205 287.386 120.719 289.841 117.68 289.841H113.954C113.793 289.841 113.672 289.698 113.672 289.544V279.208ZM117.497 287.935C119.54 287.935 121.035 286.403 121.035 284.36C121.035 282.333 119.54 280.801 117.497 280.801H115.703V287.935H117.497Z" fill="#D85E38"/>
<path d="M132.865 288.308L133.43 287.342C133.557 287.122 133.823 287.122 133.967 287.232C134.044 287.281 135.318 288.199 136.342 288.199C137.161 288.199 137.776 287.666 137.776 286.996C137.776 286.199 137.1 285.65 135.777 285.123C134.299 284.53 132.821 283.591 132.821 281.751C132.821 280.361 133.856 278.752 136.364 278.752C137.969 278.752 139.198 279.565 139.508 279.801C139.669 279.894 139.713 280.158 139.602 280.317L139.005 281.207C138.877 281.394 138.639 281.52 138.457 281.394C138.329 281.317 137.133 280.537 136.27 280.537C135.406 280.537 134.886 281.13 134.886 281.63C134.886 282.366 135.467 282.86 136.74 283.376C138.268 283.986 140.029 284.892 140.029 286.902C140.029 288.512 138.628 289.995 136.408 289.995C134.426 289.995 133.258 289.072 132.948 288.775C132.804 288.632 132.727 288.556 132.871 288.308H132.865Z" fill="#D85E38"/>
<path d="M58.7485 194.229C58.7485 193.289 57.8019 192.597 56.822 192.597H54.7626V195.931H57.049C57.9956 195.931 58.7485 195.201 58.7485 194.229Z" fill="#D85E38"/>
<path d="M88.2446 240.384C85.8641 240.384 83.9209 242.35 83.9209 244.712C83.9209 247.074 85.8641 249.001 88.2446 249.001C90.6251 249.001 92.5904 247.074 92.5904 244.712C92.5904 242.35 90.6251 240.384 88.2446 240.384Z" fill="#D85E38"/>
<path d="M56.9161 213.852H54.7626V222.414H56.9161C59.3686 222.414 61.1622 220.58 61.1622 218.125C61.1622 215.686 59.3686 213.852 56.9161 213.852Z" fill="#D85E38"/>
<path d="M90.7412 189.099C90.7412 188.105 89.8721 187.281 88.87 187.281H85.792V191.01H88.87C89.8721 191.01 90.7412 190.148 90.7412 189.099Z" fill="#D85E38"/>
<path d="M58.4108 188.857C58.4108 187.918 57.752 187.265 56.7887 187.265H54.7681V190.543H56.7887C57.752 190.543 58.4108 189.791 58.4108 188.857Z" fill="#D85E38"/>
<path d="M118.095 187.281C115.714 187.281 113.771 189.247 113.771 191.609C113.771 193.97 115.714 195.898 118.095 195.898C120.475 195.898 122.435 193.97 122.435 191.609C122.435 189.247 120.47 187.281 118.095 187.281Z" fill="#D85E38"/>
<path d="M118.837 213.835H115.759V217.565H118.837C119.839 217.565 120.702 216.702 120.702 215.653C120.702 214.659 119.833 213.835 118.837 213.835Z" fill="#D85E38"/>
<path d="M34.7664 168.954V267.334H140.239V168.954H34.7664ZM83.3175 185.392C83.3175 185.205 83.467 185.035 83.6773 185.035H89.075C91.3392 185.035 93.1883 186.831 93.1883 189.06C93.1883 190.785 92.0368 192.191 90.3926 192.845L92.9779 197.601C93.1108 197.842 92.9779 198.144 92.6568 198.144H90.6749C90.5033 198.144 90.4092 198.051 90.376 197.974L87.8626 193.009H85.7644V197.787C85.7644 197.974 85.5928 198.144 85.4046 198.144H83.6663C83.4614 198.144 83.3064 197.974 83.3064 197.787V185.386L83.3175 185.392ZM91.1731 216.905C91.3614 216.905 91.533 217.076 91.533 217.262V218.817C91.533 219.025 91.3614 219.174 91.1731 219.174H86.5063V222.453H92.0977C92.3025 222.453 92.4575 222.623 92.4575 222.81V224.347C92.4575 224.534 92.308 224.704 92.0977 224.704H84.4136C84.2088 224.704 84.0538 224.534 84.0538 224.347V211.946C84.0538 211.759 84.2033 211.589 84.4136 211.589H92.0977C92.3025 211.589 92.4575 211.759 92.4575 211.946V213.484C92.4575 213.671 92.308 213.841 92.0977 213.841H86.5063V216.911H91.1731V216.905ZM52.3267 185.392C52.3267 185.205 52.4817 185.035 52.6865 185.035H57.0102C59.2578 185.035 60.9962 186.534 60.9962 188.5C60.9962 189.945 59.8059 191.065 58.9201 191.477C59.9222 191.796 61.3726 192.806 61.3726 194.531C61.3726 196.629 59.5623 198.144 57.2593 198.144H52.6921C52.4872 198.144 52.3322 197.974 52.3322 197.787V185.386L52.3267 185.392ZM56.667 251.44C54.2865 251.44 52.8914 250.336 52.5149 249.979C52.3433 249.809 52.2492 249.715 52.4208 249.419L53.1017 248.26C53.2512 247.996 53.5723 247.996 53.7439 248.128C53.838 248.183 55.366 249.287 56.595 249.287C57.5749 249.287 58.3112 248.65 58.3112 247.843C58.3112 246.887 57.4974 246.233 55.9141 245.596C54.137 244.882 52.3655 243.762 52.3655 241.549C52.3655 239.879 53.6111 237.951 56.6116 237.951C58.5381 237.951 60.0107 238.923 60.3872 239.203C60.5754 239.319 60.6308 239.632 60.4979 239.824L59.7838 240.89C59.6287 241.115 59.3464 241.263 59.125 241.115C58.9755 241.021 57.5361 240.082 56.5009 240.082C55.4269 240.082 54.8401 240.796 54.8401 241.395C54.8401 242.274 55.5376 242.878 57.0656 243.493C58.898 244.223 61.0128 245.311 61.0128 247.727C61.0128 249.655 59.3298 251.434 56.667 251.434V251.44ZM57.1431 224.699H52.6699C52.4817 224.699 52.3322 224.529 52.3322 224.342V211.941C52.3322 211.754 52.4872 211.584 52.6699 211.584H57.1431C60.7858 211.584 63.7697 214.527 63.7697 218.119C63.7697 221.755 60.7858 224.693 57.1431 224.693V224.699ZM88.2446 251.44C84.469 251.44 81.4685 248.463 81.4685 244.718C81.4685 240.972 84.469 237.957 88.2446 237.957C92.0202 237.957 95.0428 240.972 95.0428 244.718C95.0428 248.463 92.0202 251.44 88.2446 251.44ZM123.686 251.099C123.686 251.286 123.515 251.434 123.327 251.434H122.873L114.978 242.834H114.962V250.891C114.962 251.077 114.812 251.248 114.602 251.248H112.886C112.697 251.248 112.526 251.077 112.526 250.891V238.286C112.526 238.1 112.697 237.951 112.886 237.951H113.356L121.212 246.228H121.228V238.489C121.228 238.303 121.378 238.132 121.588 238.132H123.327C123.515 238.132 123.686 238.303 123.686 238.489V251.099ZM122.956 224.155C123.088 224.397 122.956 224.699 122.635 224.699H120.653C120.481 224.699 120.387 224.605 120.348 224.529L117.835 219.564H115.737V224.342C115.737 224.529 115.565 224.699 115.377 224.699H113.638C113.434 224.699 113.279 224.529 113.279 224.342V211.941C113.279 211.754 113.428 211.584 113.638 211.584H119.042C121.306 211.584 123.155 213.38 123.155 215.609C123.155 217.334 122.003 218.74 120.359 219.393L122.945 224.15L122.956 224.155ZM118.095 198.331C114.319 198.331 111.319 195.354 111.319 191.609C111.319 187.863 114.319 184.848 118.095 184.848C121.871 184.848 124.893 187.863 124.893 191.609C124.893 195.354 121.871 198.331 118.095 198.331Z" fill="#D85E38"/>
<path d="M94.5613 169.261H121.317L175 50.7306L71.5092 0L73.1977 45.5021L104.714 31.9311L94.5613 169.261Z" fill="#4F2318"/>
<path d="M94.5612 169.261L104.714 31.9312L73.1976 45.5022L0 77.0049L53.1239 169.261H94.5612Z" fill="#CE7F9F"/>
</g>
<defs>
<clipPath id="clip0_8_300">
<rect width="175" height="290" fill="white"/>
</clipPath>
</defs>
</svg>
