<svg width="174" height="290" viewBox="0 0 174 290" fill="none" xmlns="http://www.w3.org/2000/svg">
<g clip-path="url(#clip0_8_344)">
<path d="M34.5952 289.435L39.4611 278.928C39.5107 278.835 39.5877 278.758 39.7253 278.758H39.8795C40.0391 278.758 40.0996 278.835 40.1437 278.928L44.9655 289.435C45.0591 289.638 44.9325 289.841 44.7013 289.841H43.3417C43.1106 289.841 43.0005 289.748 42.8904 289.528L42.1253 287.842H37.4465L36.6814 289.528C36.6209 289.682 36.4777 289.841 36.23 289.841H34.8704C34.6393 289.841 34.5127 289.638 34.6062 289.435H34.5952ZM41.3602 286.112L39.7969 282.679H39.7474L38.2116 286.112H41.3602Z" fill="#A1BAE1"/>
<path d="M53.1342 279.29C53.0736 279.071 53.1947 278.917 53.4149 278.917H54.8571C54.9837 278.917 55.1103 279.027 55.1378 279.137L56.7671 285.365H56.8277L59.3157 278.933C59.3487 278.84 59.4257 278.763 59.5799 278.763H59.8606C60.0147 278.763 60.0918 278.84 60.1248 278.933L62.6293 285.365H62.6899L64.2861 279.137C64.3192 279.027 64.4458 278.917 64.5669 278.917H66.009C66.2292 278.917 66.3503 279.076 66.2897 279.29L63.3339 289.78C63.3008 289.907 63.1798 290 63.0532 290H62.7999C62.6568 290 62.5633 289.923 62.5357 289.83L59.734 282.756H59.6569L56.8882 289.83C56.8442 289.923 56.7781 290 56.624 290H56.3763C56.2497 290 56.1231 289.907 56.0956 289.78L53.1397 279.29H53.1342Z" fill="#A1BAE1"/>
<path d="M74.4526 289.434L79.3186 278.928C79.3681 278.835 79.4452 278.758 79.5828 278.758H79.7369C79.8965 278.758 79.9571 278.835 80.0011 278.928L84.823 289.434C84.9165 289.638 84.7899 289.841 84.5588 289.841H83.1992C82.968 289.841 82.8579 289.747 82.7478 289.528L81.9827 287.842H77.3039L76.5388 289.528C76.4783 289.681 76.3352 289.841 76.0875 289.841H74.7279C74.4967 289.841 74.3701 289.638 74.4637 289.434H74.4526ZM81.2121 286.112L79.6488 282.679H79.5993L78.0635 286.112H81.2121Z" fill="#A1BAE1"/>
<path d="M94.4282 279.208C94.4282 279.049 94.5493 278.911 94.7255 278.911H99.2005C101.078 278.911 102.613 280.411 102.613 282.267C102.613 283.701 101.661 284.876 100.296 285.42L102.443 289.385C102.553 289.588 102.443 289.835 102.178 289.835H100.533C100.39 289.835 100.312 289.758 100.279 289.692L98.1987 285.557H96.4649V289.539C96.4649 289.692 96.3217 289.835 96.1676 289.835H94.7255C94.5548 289.835 94.4282 289.692 94.4282 289.539V279.203V279.208ZM99.0244 283.893C99.8556 283.893 100.577 283.173 100.577 282.3C100.577 281.471 99.8556 280.784 99.0244 280.784H96.4759V283.893H99.0244Z" fill="#A1BAE1"/>
<path d="M113.022 279.208C113.022 279.049 113.143 278.911 113.303 278.911H117.007C120.029 278.911 122.501 281.361 122.501 284.36C122.501 287.386 120.029 289.841 117.007 289.841H113.303C113.143 289.841 113.022 289.698 113.022 289.544V279.208ZM116.826 287.935C118.857 287.935 120.343 286.403 120.343 284.36C120.343 282.333 118.857 280.801 116.826 280.801H115.042V287.935H116.826Z" fill="#A1BAE1"/>
<path d="M132.106 288.308L132.667 287.342C132.794 287.122 133.058 287.122 133.201 287.232C133.278 287.281 134.544 288.199 135.563 288.199C136.377 288.199 136.988 287.666 136.988 286.996C136.988 286.199 136.317 285.65 135.001 285.123C133.532 284.53 132.062 283.591 132.062 281.751C132.062 280.361 133.091 278.752 135.585 278.752C137.181 278.752 138.403 279.565 138.711 279.801C138.871 279.894 138.915 280.158 138.805 280.317L138.21 281.207C138.084 281.394 137.847 281.52 137.665 281.394C137.539 281.317 136.35 280.537 135.491 280.537C134.632 280.537 134.115 281.13 134.115 281.63C134.115 282.366 134.693 282.86 135.959 283.376C137.478 283.986 139.229 284.892 139.229 286.902C139.229 288.512 137.836 289.995 135.629 289.995C133.658 289.995 132.497 289.072 132.188 288.775C132.045 288.632 131.968 288.556 132.111 288.308H132.106Z" fill="#A1BAE1"/>
<path d="M58.4126 194.229C58.4126 193.289 57.4714 192.597 56.4971 192.597H54.4495V195.931H56.7228C57.664 195.931 58.4126 195.201 58.4126 194.229Z" fill="#A1BAE1"/>
<path d="M87.7404 240.384C85.3735 240.384 83.4414 242.35 83.4414 244.712C83.4414 247.074 85.3735 249.001 87.7404 249.001C90.1073 249.001 92.0613 247.074 92.0613 244.712C92.0613 242.35 90.1073 240.384 87.7404 240.384Z" fill="#A1BAE1"/>
<path d="M56.5907 213.852H54.4495V222.414H56.5907C59.0291 222.414 60.8126 220.58 60.8126 218.125C60.8126 215.686 59.0291 213.852 56.5907 213.852Z" fill="#A1BAE1"/>
<path d="M90.2227 189.099C90.2227 188.105 89.3585 187.281 88.3622 187.281H85.3018V191.01H88.3622C89.3585 191.01 90.2227 190.148 90.2227 189.099Z" fill="#A1BAE1"/>
<path d="M58.077 188.857C58.077 187.918 57.422 187.265 56.4642 187.265H54.4551V190.543H56.4642C57.422 190.543 58.077 189.791 58.077 188.857Z" fill="#A1BAE1"/>
<path d="M117.42 187.281C115.053 187.281 113.121 189.247 113.121 191.609C113.121 193.97 115.053 195.898 117.42 195.898C119.787 195.898 121.736 193.97 121.736 191.609C121.736 189.247 119.781 187.281 117.42 187.281Z" fill="#A1BAE1"/>
<path d="M118.158 213.835H115.097V217.565H118.158C119.154 217.565 120.013 216.702 120.013 215.653C120.013 214.659 119.148 213.835 118.158 213.835Z" fill="#A1BAE1"/>
<path d="M34.5676 168.954V267.334H139.438V168.954H34.5676ZM82.8413 185.392C82.8413 185.205 82.9899 185.035 83.1991 185.035H88.5659C90.8172 185.035 92.6557 186.831 92.6557 189.06C92.6557 190.785 91.5108 192.191 89.876 192.845L92.4465 197.601C92.5786 197.842 92.4465 198.144 92.1273 198.144H90.1567C89.9861 198.144 89.8925 198.051 89.8595 197.974L87.3605 193.009H85.2743V197.787C85.2743 197.974 85.1036 198.144 84.9165 198.144H83.1881C82.9844 198.144 82.8303 197.974 82.8303 197.787V185.386L82.8413 185.392ZM90.6521 216.905C90.8392 216.905 91.0099 217.076 91.0099 217.262V218.817C91.0099 219.025 90.8392 219.174 90.6521 219.174H86.0119V222.453H91.5713C91.775 222.453 91.9291 222.623 91.9291 222.81V224.347C91.9291 224.534 91.7805 224.704 91.5713 224.704H83.9312C83.7275 224.704 83.5734 224.534 83.5734 224.347V211.946C83.5734 211.759 83.722 211.589 83.9312 211.589H91.5713C91.775 211.589 91.9291 211.759 91.9291 211.946V213.484C91.9291 213.671 91.7805 213.841 91.5713 213.841H86.0119V216.911H90.6521V216.905ZM52.0276 185.392C52.0276 185.205 52.1817 185.035 52.3854 185.035H56.6844C58.9192 185.035 60.6475 186.534 60.6475 188.5C60.6475 189.945 59.4641 191.065 58.5834 191.477C59.5797 191.796 61.0218 192.806 61.0218 194.531C61.0218 196.629 59.2219 198.144 56.9321 198.144H52.3909C52.1873 198.144 52.0331 197.974 52.0331 197.787V185.386L52.0276 185.392ZM56.3431 251.44C53.9762 251.44 52.5891 250.336 52.2148 249.979C52.0441 249.809 51.9506 249.715 52.1212 249.419L52.7982 248.26C52.9469 247.996 53.2661 247.996 53.4368 248.128C53.5303 248.183 55.0496 249.287 56.2715 249.287C57.2458 249.287 57.9779 248.65 57.9779 247.843C57.9779 246.887 57.1687 246.233 55.5945 245.596C53.8276 244.882 52.0662 243.762 52.0662 241.549C52.0662 239.879 53.3047 237.951 56.288 237.951C58.2036 237.951 59.6678 238.923 60.0421 239.203C60.2292 239.319 60.2842 239.632 60.1521 239.824L59.4421 240.89C59.2879 241.115 59.0072 241.263 58.787 241.115C58.6384 241.021 57.2073 240.082 56.178 240.082C55.1101 240.082 54.5266 240.796 54.5266 241.395C54.5266 242.274 55.2202 242.878 56.7394 243.493C58.5614 244.223 60.664 245.311 60.664 247.727C60.664 249.655 58.9907 251.434 56.3431 251.434V251.44ZM56.8165 224.699H52.3689C52.1817 224.699 52.0331 224.529 52.0331 224.342V211.941C52.0331 211.754 52.1873 211.584 52.3689 211.584H56.8165C60.4384 211.584 63.4053 214.527 63.4053 218.119C63.4053 221.755 60.4384 224.693 56.8165 224.693V224.699ZM87.7403 251.44C83.9862 251.44 81.0029 248.463 81.0029 244.718C81.0029 240.972 83.9862 237.957 87.7403 237.957C91.4943 237.957 94.4997 240.972 94.4997 244.718C94.4997 248.463 91.4943 251.44 87.7403 251.44ZM122.98 251.099C122.98 251.286 122.809 251.434 122.622 251.434H122.17L114.321 242.834H114.305V250.891C114.305 251.077 114.156 251.248 113.947 251.248H112.24C112.053 251.248 111.883 251.077 111.883 250.891V238.286C111.883 238.1 112.053 237.951 112.24 237.951H112.708L120.519 246.228H120.536V238.489C120.536 238.303 120.684 238.132 120.893 238.132H122.622C122.809 238.132 122.98 238.303 122.98 238.489V251.099ZM122.253 224.155C122.385 224.397 122.253 224.699 121.934 224.699H119.963C119.792 224.699 119.699 224.605 119.66 224.529L117.161 219.564H115.075V224.342C115.075 224.529 114.905 224.699 114.717 224.699H112.989C112.785 224.699 112.631 224.529 112.631 224.342V211.941C112.631 211.754 112.78 211.584 112.989 211.584H118.361C120.613 211.584 122.451 213.38 122.451 215.609C122.451 217.334 121.306 218.74 119.671 219.393L122.242 224.15L122.253 224.155ZM117.42 198.331C113.666 198.331 110.683 195.354 110.683 191.609C110.683 187.863 113.666 184.848 117.42 184.848C121.174 184.848 124.179 187.863 124.179 191.609C124.179 195.354 121.174 198.331 117.42 198.331Z" fill="#A1BAE1"/>
<path d="M94.021 169.261H120.624L174 50.7306L71.1006 0L72.7794 45.5021L104.116 31.9311L94.021 169.261Z" fill="#4A5CAA"/>
<path d="M94.0209 169.261L104.116 31.9312L72.7794 45.5022L0 77.0049L52.8204 169.261H94.0209Z" fill="#ADC937"/>
</g>
<defs>
<clipPath id="clip0_8_344">
<rect width="174" height="290" fill="white"/>
</clipPath>
</defs>
</svg>
