<svg width="1440" height="1024" viewBox="0 0 1440 1024" fill="none" xmlns="http://www.w3.org/2000/svg">
<path d="M619.732 0H410.134V311.703H619.732V0Z" fill="#EECE5C"/>
<path d="M209.597 0H0V311.703H209.597V0Z" fill="#4A5CAA"/>
<path d="M414.664 0H205.067V311.703H414.664V0Z" fill="#B4C83E"/>
<path d="M824.799 0H615.201V311.703H824.799V0Z" fill="#A7BAE0"/>
<path d="M1029.87 0H820.268V311.703H1029.87V0Z" fill="#D85E38"/>
<path d="M1440 0H1230.4V311.703H1440V0Z" fill="#4F2318"/>
<path d="M1234.93 0H1025.34V311.703H1234.93V0Z" fill="#CE7F9F"/>
<path d="M209.597 308.134H0V785.107H209.597V308.134Z" fill="#D85E38"/>
<path d="M1234.93 308.134H1025.34V785.107H1234.93V308.134Z" fill="#EECE5C"/>
<path d="M824.799 308.134H615.201V785.107H824.799V308.134Z" fill="#4A5CAA"/>
<path d="M1029.87 308.134H820.268V785.107H1029.87V308.134Z" fill="#B4C83E"/>
<path d="M619.732 308.134H410.134V785.107H619.732V308.134Z" fill="#4F2318"/>
<path d="M1440 308.134H1230.4V785.107H1440V308.134Z" fill="#A7BAE0"/>
<path d="M414.664 308.134H205.067V785.107H414.664V308.134Z" fill="#CE7F9F"/>
<path d="M209.597 781.538H0V1024H209.597V781.538Z" fill="#A7BAE0"/>
<path d="M414.664 781.538H205.067V1024H414.664V781.538Z" fill="#D85E38"/>
<path d="M1440 781.538H1230.4V1024H1440V781.538Z" fill="#EECE5C"/>
<path d="M1029.87 781.538H820.268V1024H1029.87V781.538Z" fill="#4A5CAA"/>
<path d="M1234.93 781.538H1025.34V1024H1234.93V781.538Z" fill="#B4C83E"/>
<path d="M824.799 781.538H615.201V1024H824.799V781.538Z" fill="#4F2318"/>
<path d="M619.732 781.538H410.134V1024H619.732V781.538Z" fill="#CE7F9F"/>
</svg>
