<svg width="296" height="494" viewBox="0 0 296 494" fill="none" xmlns="http://www.w3.org/2000/svg">
<g clip-path="url(#clip0_1_55)">
<path d="M58.7023 492.861L66.9589 474.97C67.043 474.811 67.1737 474.68 67.4072 474.68H67.6688C67.9396 474.68 68.0424 474.811 68.1171 474.97L76.299 492.861C76.4578 493.207 76.2429 493.553 75.8506 493.553H73.5437C73.1514 493.553 72.9646 493.394 72.7778 493.02L71.4795 490.149H63.5404L62.2422 493.02C62.1394 493.282 61.8966 493.553 61.4763 493.553H59.1693C58.777 493.553 58.5622 493.207 58.721 492.861H58.7023ZM70.1812 487.203L67.5287 481.358H67.4446L64.8387 487.203H70.1812Z" fill="#A7BAE0"/>
<path d="M90.1596 475.586C90.0569 475.212 90.2624 474.95 90.636 474.95H93.0831C93.2979 474.95 93.5127 475.137 93.5594 475.324L96.3241 485.93H96.4268L100.649 474.978C100.705 474.819 100.835 474.688 101.097 474.688H101.573C101.835 474.688 101.965 474.819 102.021 474.978L106.271 485.93H106.374L109.083 475.324C109.139 475.137 109.353 474.95 109.559 474.95H112.006C112.38 474.95 112.585 475.221 112.482 475.586L107.467 493.449C107.411 493.664 107.205 493.823 106.99 493.823H106.561C106.318 493.823 106.159 493.692 106.112 493.533L101.358 481.487H101.228L96.5295 493.533C96.4548 493.692 96.3427 493.823 96.0812 493.823H95.6609C95.4461 493.823 95.2313 493.664 95.1846 493.449L90.169 475.586H90.1596Z" fill="#A7BAE0"/>
<path d="M126.334 492.86L134.59 474.969C134.674 474.81 134.805 474.679 135.039 474.679H135.3C135.571 474.679 135.674 474.81 135.748 474.969L143.93 492.86C144.089 493.206 143.874 493.552 143.482 493.552H141.175C140.783 493.552 140.596 493.393 140.409 493.019L139.111 490.148H131.172L129.874 493.019C129.771 493.281 129.528 493.552 129.108 493.552H126.801C126.408 493.552 126.194 493.206 126.352 492.86H126.334ZM137.803 487.202L135.151 481.357H135.067L132.461 487.202H137.803Z" fill="#A7BAE0"/>
<path d="M160.229 475.446C160.229 475.175 160.434 474.941 160.733 474.941H168.327C171.512 474.941 174.117 477.494 174.117 480.655C174.117 483.096 172.502 485.097 170.185 486.023L173.828 492.775C174.015 493.122 173.828 493.542 173.38 493.542H170.587C170.344 493.542 170.213 493.411 170.157 493.299L166.627 486.257H163.685V493.037C163.685 493.299 163.442 493.542 163.18 493.542H160.733C160.444 493.542 160.229 493.299 160.229 493.037V475.437V475.446ZM168.028 483.423C169.438 483.423 170.662 482.198 170.662 480.711C170.662 479.299 169.438 478.13 168.028 478.13H163.703V483.423H168.028Z" fill="#A7BAE0"/>
<path d="M191.779 475.446C191.779 475.175 191.985 474.941 192.256 474.941H198.542C203.669 474.941 207.863 479.112 207.863 484.218C207.863 489.371 203.669 493.552 198.542 493.552H192.256C191.985 493.552 191.779 493.309 191.779 493.047V475.446ZM198.233 490.307C201.68 490.307 204.202 487.697 204.202 484.218C204.202 480.767 201.68 478.158 198.233 478.158H195.207V490.307H198.233Z" fill="#A7BAE0"/>
<path d="M224.161 490.942L225.114 489.296C225.329 488.922 225.777 488.922 226.02 489.109C226.151 489.194 228.299 490.755 230.027 490.755C231.409 490.755 232.446 489.848 232.446 488.707C232.446 487.351 231.307 486.416 229.074 485.518C226.581 484.508 224.087 482.909 224.087 479.776C224.087 477.41 225.833 474.67 230.064 474.67C232.773 474.67 234.847 476.054 235.37 476.456C235.64 476.615 235.715 477.064 235.528 477.335L234.52 478.85C234.305 479.168 233.903 479.383 233.595 479.168C233.38 479.037 231.363 477.709 229.906 477.709C228.449 477.709 227.571 478.719 227.571 479.57C227.571 480.823 228.551 481.665 230.7 482.544C233.277 483.582 236.248 485.125 236.248 488.548C236.248 491.289 233.884 493.814 230.139 493.814C226.795 493.814 224.825 492.242 224.302 491.737C224.059 491.494 223.928 491.363 224.171 490.942H224.161Z" fill="#A7BAE0"/>
<path d="M99.1168 330.74C99.1168 329.141 97.5196 327.962 95.8664 327.962H92.3919V333.639H96.2494C97.8465 333.639 99.1168 332.395 99.1168 330.74Z" fill="#A7BAE0"/>
<path d="M148.881 409.335C144.864 409.335 141.586 412.684 141.586 416.705C141.586 420.726 144.864 424.009 148.881 424.009C152.897 424.009 156.213 420.726 156.213 416.705C156.213 412.684 152.897 409.335 148.881 409.335Z" fill="#A7BAE0"/>
<path d="M96.0252 364.155H92.3919V378.735H96.0252C100.163 378.735 103.189 375.611 103.189 371.431C103.189 367.279 100.163 364.155 96.0252 364.155Z" fill="#A7BAE0"/>
<path d="M153.093 322.005C153.093 320.312 151.627 318.909 149.936 318.909H144.743V325.259H149.936C151.627 325.259 153.093 323.791 153.093 322.005Z" fill="#A7BAE0"/>
<path d="M98.547 321.593C98.547 319.994 97.4355 318.881 95.8104 318.881H92.4012V324.464H95.8104C97.4355 324.464 98.547 323.183 98.547 321.593Z" fill="#A7BAE0"/>
<path d="M199.242 318.909C195.226 318.909 191.948 322.257 191.948 326.279C191.948 330.3 195.226 333.583 199.242 333.583C203.258 333.583 206.565 330.3 206.565 326.279C206.565 322.257 203.249 318.909 199.242 318.909Z" fill="#A7BAE0"/>
<path d="M200.494 364.127H195.301V370.477H200.494C202.184 370.477 203.641 369.009 203.641 367.223C203.641 365.53 202.175 364.127 200.494 364.127Z" fill="#A7BAE0"/>
<path d="M58.6556 287.701V455.227H236.602V287.701H58.6556ZM140.568 315.692C140.568 315.374 140.82 315.084 141.175 315.084H150.282C154.102 315.084 157.221 318.142 157.221 321.939C157.221 324.876 155.279 327.27 152.505 328.383L156.866 336.482C157.09 336.893 156.866 337.408 156.325 337.408H152.981C152.691 337.408 152.533 337.249 152.476 337.118L148.236 328.664H144.696V336.8C144.696 337.118 144.407 337.408 144.089 337.408H141.156C140.811 337.408 140.549 337.118 140.549 336.8V315.683L140.568 315.692ZM153.821 369.355C154.139 369.355 154.429 369.645 154.429 369.963V372.609C154.429 372.965 154.139 373.217 153.821 373.217H145.948V378.801H155.381C155.727 378.801 155.988 379.09 155.988 379.408V382.027C155.988 382.345 155.736 382.635 155.381 382.635H142.417C142.072 382.635 141.81 382.345 141.81 382.027V360.91C141.81 360.592 142.062 360.302 142.417 360.302H155.381C155.727 360.302 155.988 360.592 155.988 360.91V363.528C155.988 363.846 155.736 364.136 155.381 364.136H145.948V369.364H153.821V369.355ZM88.2823 315.692C88.2823 315.374 88.5438 315.084 88.8894 315.084H96.184C99.976 315.084 102.909 317.637 102.909 320.985C102.909 323.445 100.901 325.353 99.4063 326.054C101.097 326.597 103.544 328.317 103.544 331.254C103.544 334.827 100.49 337.408 96.6043 337.408H88.8987C88.5531 337.408 88.2916 337.118 88.2916 336.8V315.683L88.2823 315.692ZM95.6049 428.161C91.5886 428.161 89.235 426.282 88.5998 425.674C88.3103 425.384 88.1515 425.225 88.441 424.72L89.5899 422.746C89.8421 422.297 90.3838 422.298 90.6733 422.522C90.8321 422.615 93.41 424.495 95.4835 424.495C97.1366 424.495 98.3789 423.41 98.3789 422.036C98.3789 420.408 97.0059 419.295 94.3346 418.211C91.3365 416.995 88.3476 415.087 88.3476 411.318C88.3476 408.475 90.4492 405.192 95.5115 405.192C98.7618 405.192 101.246 406.848 101.881 407.325C102.199 407.521 102.292 408.054 102.068 408.381L100.863 410.196C100.602 410.579 100.125 410.832 99.7519 410.579C99.4997 410.42 97.0713 408.821 95.3247 408.821C93.5127 408.821 92.5227 410.037 92.5227 411.056C92.5227 412.553 93.6995 413.581 96.2774 414.629C99.3689 415.873 102.937 417.724 102.937 421.839C102.937 425.122 100.097 428.152 95.6049 428.152V428.161ZM96.4081 382.626H88.8613C88.5438 382.626 88.2916 382.336 88.2916 382.018V360.9C88.2916 360.582 88.5531 360.293 88.8613 360.293H96.4081C102.554 360.293 107.588 365.305 107.588 371.422C107.588 377.613 102.554 382.616 96.4081 382.616V382.626ZM148.881 428.161C142.511 428.161 137.448 423.092 137.448 416.714C137.448 410.336 142.511 405.202 148.881 405.202C155.25 405.202 160.35 410.336 160.35 416.714C160.35 423.092 155.25 428.161 148.881 428.161ZM208.676 427.581C208.676 427.899 208.386 428.152 208.069 428.152H207.303L193.984 413.506H193.956V427.226C193.956 427.544 193.704 427.834 193.349 427.834H190.453C190.136 427.834 189.846 427.544 189.846 427.226V405.763C189.846 405.445 190.136 405.192 190.453 405.192H191.247L204.501 419.286H204.529V406.109C204.529 405.791 204.781 405.501 205.136 405.501H208.069C208.386 405.501 208.676 405.791 208.676 406.109V427.581ZM207.443 381.7C207.667 382.111 207.443 382.626 206.901 382.626H203.557C203.268 382.626 203.109 382.467 203.044 382.336L198.803 373.881H195.263V382.018C195.263 382.336 194.974 382.626 194.656 382.626H191.723C191.378 382.626 191.116 382.336 191.116 382.018V360.9C191.116 360.582 191.369 360.293 191.723 360.293H200.839C204.659 360.293 207.779 363.351 207.779 367.148C207.779 370.084 205.836 372.478 203.062 373.591L207.424 381.69L207.443 381.7ZM199.242 337.726C192.872 337.726 187.81 332.657 187.81 326.279C187.81 319.901 192.872 314.766 199.242 314.766C205.612 314.766 210.712 319.901 210.712 326.279C210.712 332.657 205.612 337.726 199.242 337.726Z" fill="#A7BAE0"/>
<path d="M159.538 288.225H204.678L295.249 86.386L120.646 0L123.494 77.4828L176.667 54.3735L159.538 288.225Z" fill="#EECE5C"/>
<path d="M159.538 288.225L176.667 54.3736L123.494 77.4828L0 131.127L89.6272 288.225H159.538Z" fill="#D85E38"/>
</g>
<defs>
<clipPath id="clip0_1_55">
<rect width="295.249" height="493.823" fill="white"/>
</clipPath>
</defs>
</svg>
