<svg width="92" height="107" viewBox="0 0 92 107" fill="none" xmlns="http://www.w3.org/2000/svg">
<path d="M0.0240433 106.503L4.29278 97.2529C4.33624 97.1707 4.40385 97.103 4.52457 97.103H4.65978C4.79981 97.103 4.85293 97.1707 4.89156 97.2529L9.12167 106.503C9.20376 106.681 9.0927 106.86 8.88988 106.86H7.69715C7.49433 106.86 7.39776 106.778 7.30118 106.585L6.62996 105.1H2.52541L1.85419 106.585C1.80107 106.72 1.67552 106.86 1.45822 106.86H0.265488C0.0626744 106.86 -0.0483899 106.681 0.0337013 106.503H0.0240433ZM5.95875 103.577L4.58735 100.555H4.54388L3.19662 103.577H5.95875Z" fill="#D85E38"/>
<path d="M16.2878 97.5715C16.2347 97.378 16.3409 97.2427 16.5341 97.2427H17.7993C17.9103 97.2427 18.0214 97.3394 18.0455 97.4361L19.4749 102.919H19.528L21.7107 97.2572C21.7396 97.175 21.8072 97.1073 21.9424 97.1073H22.1887C22.3239 97.1073 22.3915 97.175 22.4205 97.2572L24.6176 102.919H24.6708L26.0711 97.4361C26.1001 97.3394 26.2112 97.2427 26.3174 97.2427H27.5826C27.7757 97.2427 27.882 97.3829 27.8289 97.5715L25.2357 106.807C25.2068 106.918 25.1005 107 24.9895 107H24.7673C24.6418 107 24.5597 106.932 24.5356 106.85L22.0776 100.622H22.01L19.5811 106.85C19.5425 106.932 19.4845 107 19.3493 107H19.132C19.021 107 18.9099 106.918 18.8858 106.807L16.2926 97.5715H16.2878Z" fill="#D85E38"/>
<path d="M34.9901 106.502L39.2589 97.2523C39.3023 97.1701 39.3699 97.1024 39.4906 97.1024H39.6258C39.7659 97.1024 39.819 97.1701 39.8576 97.2523L44.0877 106.502C44.1698 106.681 44.0588 106.86 43.8559 106.86H42.6632C42.4604 106.86 42.3638 106.778 42.2672 106.584L41.596 105.1H37.4915L36.8203 106.584C36.7671 106.72 36.6416 106.86 36.4243 106.86H35.2316C35.0287 106.86 34.9177 106.681 34.9998 106.502H34.9901ZM40.92 103.577L39.5486 100.555H39.5051L38.1579 103.577H40.92Z" fill="#D85E38"/>
<path d="M52.5142 97.4989C52.5142 97.3587 52.6204 97.2378 52.7749 97.2378H56.7008C58.3475 97.2378 59.6947 98.5578 59.6947 100.192C59.6947 101.454 58.8593 102.489 57.6618 102.967L59.545 106.458C59.6416 106.637 59.545 106.855 59.3132 106.855H57.8694C57.7438 106.855 57.6762 106.787 57.6473 106.729L55.8219 103.088H54.3008V106.594C54.3008 106.729 54.1753 106.855 54.0401 106.855H52.7749C52.6252 106.855 52.5142 106.729 52.5142 106.594V97.4941V97.4989ZM56.5463 101.623C57.2754 101.623 57.908 100.99 57.908 100.221C57.908 99.491 57.2754 98.8866 56.5463 98.8866H54.3105V101.623H56.5463Z" fill="#D85E38"/>
<path d="M68.8262 97.4989C68.8262 97.3587 68.9324 97.2378 69.0724 97.2378H72.3223C74.9734 97.2378 77.1415 99.3943 77.1415 102.034C77.1415 104.698 74.9734 106.86 72.3223 106.86H69.0724C68.9324 106.86 68.8262 106.734 68.8262 106.599V97.4989ZM72.1629 105.182C73.9448 105.182 75.2486 103.833 75.2486 102.034C75.2486 100.25 73.9448 98.9011 72.1629 98.9011H70.5984V105.182H72.1629Z" fill="#D85E38"/>
<path d="M85.568 105.511L86.0606 104.66C86.1717 104.466 86.4034 104.466 86.529 104.563C86.5966 104.607 87.7072 105.414 88.6006 105.414C89.3153 105.414 89.8513 104.945 89.8513 104.355C89.8513 103.654 89.2621 103.171 88.108 102.706C86.8187 102.184 85.5294 101.357 85.5294 99.7376C85.5294 98.5143 86.4324 97.0976 88.6199 97.0976C90.0203 97.0976 91.0923 97.8132 91.3627 98.0211C91.5027 98.1033 91.5414 98.3354 91.4448 98.4756L90.9233 99.2589C90.8122 99.4233 90.6046 99.5345 90.4452 99.4233C90.3342 99.3556 89.2911 98.669 88.5378 98.669C87.7845 98.669 87.3306 99.1912 87.3306 99.6312C87.3306 100.279 87.8376 100.714 88.9483 101.169C90.281 101.706 91.8166 102.503 91.8166 104.273C91.8166 105.69 90.5949 106.995 88.6585 106.995C86.9298 106.995 85.9109 106.183 85.6405 105.922C85.5149 105.796 85.4473 105.728 85.5729 105.511H85.568Z" fill="#D85E38"/>
<path d="M20.9187 22.6846C20.9187 21.8578 20.093 21.2485 19.2382 21.2485H17.4419V24.1835H19.4362C20.262 24.1835 20.9187 23.5404 20.9187 22.6846Z" fill="#D85E38"/>
<path d="M46.6472 63.3192C44.5708 63.3192 42.8759 65.0502 42.8759 67.1293C42.8759 69.2084 44.5708 70.9056 46.6472 70.9056C48.7236 70.9056 50.4379 69.2084 50.4379 67.1293C50.4379 65.0502 48.7236 63.3192 46.6472 63.3192Z" fill="#D85E38"/>
<path d="M19.3203 39.9606H17.4419V47.4986H19.3203C21.4595 47.4986 23.0241 45.8836 23.0241 43.7223C23.0241 41.5755 21.4595 39.9606 19.3203 39.9606Z" fill="#D85E38"/>
<path d="M48.8251 18.1686C48.8251 17.2934 48.0669 16.5681 47.1929 16.5681H44.5081V19.8512H47.1929C48.0669 19.8512 48.8251 19.0921 48.8251 18.1686Z" fill="#D85E38"/>
<path d="M20.6243 17.9558C20.6243 17.129 20.0497 16.5536 19.2094 16.5536H17.4469V19.4402H19.2094C20.0497 19.4402 20.6243 18.7778 20.6243 17.9558Z" fill="#D85E38"/>
<path d="M72.6845 16.5681C70.608 16.5681 68.9131 18.2991 68.9131 20.3782C68.9131 22.4573 70.608 24.1545 72.6845 24.1545C74.7609 24.1545 76.4703 22.4573 76.4703 20.3782C76.4703 18.2991 74.756 16.5681 72.6845 16.5681Z" fill="#D85E38"/>
<path d="M73.3315 39.9461H70.6466V43.2292H73.3315C74.2055 43.2292 74.9588 42.47 74.9588 41.5465C74.9588 40.6714 74.2007 39.9461 73.3315 39.9461Z" fill="#D85E38"/>
<path d="M0 0.433208V87.0453H92V0.433208H0ZM42.3494 14.9048C42.3494 14.7404 42.4797 14.5905 42.6632 14.5905H47.3714C49.3464 14.5905 50.9593 16.1716 50.9593 18.1347C50.9593 19.6529 49.9549 20.8907 48.5207 21.4661L50.7758 25.6534C50.8917 25.8661 50.7758 26.132 50.4957 26.132H48.7669C48.6173 26.132 48.5352 26.0498 48.5062 25.9822L46.3139 21.6112H44.4837V25.8178C44.4837 25.9822 44.334 26.132 44.1699 26.132H42.6536C42.4749 26.132 42.3397 25.9822 42.3397 25.8178V14.9L42.3494 14.9048ZM49.2016 42.6489C49.3657 42.6489 49.5154 42.7988 49.5154 42.9632V44.3316C49.5154 44.5153 49.3657 44.6458 49.2016 44.6458H45.1308V47.5324H50.008C50.1866 47.5324 50.3219 47.6823 50.3219 47.8467V49.2005C50.3219 49.3649 50.1915 49.5148 50.008 49.5148H43.3055C43.1268 49.5148 42.9916 49.3649 42.9916 49.2005V38.2828C42.9916 38.1184 43.122 37.9685 43.3055 37.9685H50.008C50.1866 37.9685 50.3219 38.1184 50.3219 38.2828V39.6366C50.3219 39.801 50.1915 39.9509 50.008 39.9509H45.1308V42.6538H49.2016V42.6489ZM15.3172 14.9048C15.3172 14.7404 15.4524 14.5905 15.6311 14.5905H19.4025C21.363 14.5905 22.8793 15.9105 22.8793 17.6415C22.8793 18.9132 21.8411 19.8995 21.0684 20.2622C21.9425 20.5426 23.2076 21.4323 23.2076 22.9505C23.2076 24.7975 21.6286 26.132 19.6198 26.132H15.6359C15.4573 26.132 15.3221 25.9822 15.3221 25.8178V14.9L15.3172 14.9048ZM19.1031 73.0524C17.0267 73.0524 15.8098 72.0805 15.4814 71.7662C15.3317 71.6163 15.2496 71.5341 15.3993 71.273L15.9933 70.2528C16.1237 70.0207 16.4037 70.0207 16.5534 70.1368C16.6355 70.1851 17.9683 71.157 19.0403 71.157C19.895 71.157 20.5373 70.5961 20.5373 69.8853C20.5373 69.044 19.8274 68.4686 18.4464 67.9078C16.8963 67.2792 15.351 66.2928 15.351 64.3442C15.351 62.8744 16.4375 61.1772 19.0548 61.1772C20.7353 61.1772 22.0197 62.0331 22.3481 62.2796C22.5123 62.3812 22.5606 62.6568 22.4447 62.826L21.8218 63.764C21.6865 63.9623 21.4403 64.0928 21.2471 63.9623C21.1167 63.8801 19.8612 63.0533 18.9582 63.0533C18.0214 63.0533 17.5096 63.6818 17.5096 64.2089C17.5096 64.9825 18.118 65.5144 19.4508 66.0559C21.0491 66.699 22.8938 67.6563 22.8938 69.7838C22.8938 71.4809 21.4258 73.0475 19.1031 73.0475V73.0524ZM19.5184 49.51H15.6166C15.4524 49.51 15.3221 49.3601 15.3221 49.1957V38.2779C15.3221 38.1135 15.4573 37.9637 15.6166 37.9637H19.5184C22.6958 37.9637 25.2986 40.5553 25.2986 43.7175C25.2986 46.9184 22.6958 49.5052 19.5184 49.5052V49.51ZM46.6471 73.0524C43.3538 73.0524 40.7365 70.4317 40.7365 67.1341C40.7365 63.8366 43.3538 61.1821 46.6471 61.1821C49.9404 61.1821 52.5769 63.8366 52.5769 67.1341C52.5769 70.4317 49.9404 73.0524 46.6471 73.0524ZM77.5616 72.7526C77.5616 72.917 77.4119 73.0475 77.2477 73.0475H76.8518L69.9658 65.4757H69.9513V72.5688C69.9513 72.7332 69.8209 72.8831 69.6374 72.8831H68.1405C67.9763 72.8831 67.8266 72.7332 67.8266 72.5688V61.4722C67.8266 61.3078 67.9763 61.1772 68.1405 61.1772H68.5509L75.4031 68.4638H75.4176V61.6511C75.4176 61.4867 75.548 61.3368 75.7315 61.3368H77.2477C77.4119 61.3368 77.5616 61.4867 77.5616 61.6511V72.7526ZM76.9242 49.0313C77.0401 49.2441 76.9242 49.51 76.6441 49.51H74.9154C74.7657 49.51 74.6836 49.4278 74.6498 49.3601L72.4575 44.9891H70.6273V49.1957C70.6273 49.3601 70.4776 49.51 70.3135 49.51H68.7972C68.6185 49.51 68.4833 49.3601 68.4833 49.1957V38.2779C68.4833 38.1135 68.6137 37.9637 68.7972 37.9637H73.5102C75.4852 37.9637 77.0981 39.5447 77.0981 41.5078C77.0981 43.0261 76.0936 44.2639 74.6595 44.8392L76.9146 49.0265L76.9242 49.0313ZM72.6844 26.2964C69.3911 26.2964 66.7739 23.6758 66.7739 20.3782C66.7739 17.0806 69.3911 14.4261 72.6844 14.4261C75.9777 14.4261 78.6143 17.0806 78.6143 20.3782C78.6143 23.6758 75.9777 26.2964 72.6844 26.2964Z" fill="#D85E38"/>
</svg>
