<svg width="327" height="267" viewBox="0 0 327 267" fill="none" xmlns="http://www.w3.org/2000/svg">
<path d="M305.963 59.5394C267.69 105.696 241.991 135.92 225.334 155.275C178.254 209.987 171.691 214.753 168.237 221.206C168.09 221.48 163.459 230.149 154.397 237.073C152.227 238.732 151.338 239.115 150.675 239.344C148.039 240.248 142.205 240.974 127.605 228.943C116.37 219.687 117.829 217.614 108.491 210.512C100.345 204.32 98.3681 205.237 89.6075 198.561C82.3993 193.07 81.2843 190.577 73.9821 183.619C63.53 173.659 59.4925 172.736 44.6327 161.201C38.8786 156.733 30.7479 150.092 21.4319 141.251C22.3552 137.211 23.2819 133.166 24.2052 129.127C37.4789 114.205 50.757 99.2871 64.0307 84.3657C80.5405 97.5666 97.0461 110.764 113.556 123.965C122.212 130.655 130.871 137.341 139.526 144.031C176.172 100.341 212.815 56.6519 249.461 12.9621C268.295 28.4866 287.129 44.0149 305.963 59.5394Z" fill="#B4C83E"/>
<path d="M113.029 139.102L129.77 137.49L131.421 154.636L148.541 152.988L146.927 136.222L164.047 134.574L162.396 117.427L145.276 119.076L146.89 135.841L130.15 137.453L128.499 120.306L111.759 121.918L110.144 105.153L93.0239 106.801L94.675 123.948L111.415 122.336L113.029 139.102Z" fill="#485AAE"/>
<path d="M65.6575 177.505L64.0064 160.359L47.2664 161.971L45.652 145.205L28.5314 146.853L26.9537 130.469L44.0742 128.82L42.4231 111.674L59.1632 110.062L57.5488 93.2961L73.9085 91.7208L75.5229 108.486L92.6434 106.838L90.9923 89.6911L74.2522 91.3031L72.6378 74.5374L55.5173 76.186L57.1317 92.9517L40.3916 94.5636L42.0427 111.71L25.3026 113.322L26.917 130.088L9.79646 131.736L11.4476 148.883L28.5681 147.235L30.1825 164L46.9226 162.388L48.537 179.154L65.6575 177.505Z" fill="#485AAE"/>
<path d="M177.449 98.2874L160.328 99.936L161.979 117.083L179.1 115.434L177.449 98.2874Z" fill="#485AAE"/>
<path d="M138.222 221.282L121.102 222.93L119.524 206.546L102.784 208.158L101.133 191.011L84.3926 192.623L82.8149 176.238L65.6943 177.887L67.3454 195.034L84.0855 193.422L85.6632 209.806L102.403 208.194L104.054 225.341L121.175 223.692L122.753 240.077L139.493 238.465L141.144 255.612L158.264 253.963L156.613 236.816L139.873 238.428L138.222 221.282Z" fill="#485AAE"/>
<path d="M232.929 144.093L215.809 145.742L217.46 162.888L200.72 164.5L202.334 181.266L185.214 182.914L186.865 200.061L170.125 201.673L171.702 218.058L154.962 219.67L156.613 236.816L173.734 235.168L172.156 218.783L188.896 217.171L187.245 200.024L203.985 198.413L202.371 181.647L219.491 179.998L217.84 162.852L234.58 161.24L232.966 144.474L250.086 142.826L248.435 125.679L231.315 127.327L232.929 144.093Z" fill="#485AAE"/>
<path d="M223.169 42.7365L206.049 44.3851L207.7 61.5318L190.96 63.1437L192.537 79.5283L175.797 81.1403L177.449 98.2874L194.569 96.6384L192.991 80.2538L209.731 78.6418L208.08 61.4952L224.82 59.8832L223.206 43.1176L240.327 41.469L238.675 24.3223L221.555 25.9709L223.169 42.7365Z" fill="#485AAE"/>
<path d="M255.796 22.6744L254.145 5.52773L237.024 7.17631L238.675 24.3223L255.035 22.7477L256.686 39.8943L273.807 38.2458L272.156 21.0991L255.796 22.6744Z" fill="#485AAE"/>
<path d="M292.505 52.9819L290.927 36.5973L273.807 38.2458L275.458 55.3925L291.818 53.8172L293.395 70.2018L277.036 71.7771L278.65 88.5428L261.529 90.1913L263.144 106.957L246.784 108.532L248.435 125.679L265.556 124.03L263.942 107.265L280.301 105.689L278.687 88.9238L295.807 87.2752L294.156 70.1286L310.516 68.5532L308.865 51.4066L292.505 52.9819Z" fill="#485AAE"/>
</svg>
