<svg width="311" height="311" viewBox="0 0 311 311" fill="none" xmlns="http://www.w3.org/2000/svg">
<ellipse cx="155.263" cy="155.263" rx="122.325" ry="122.326" transform="rotate(-18.8313 155.263 155.263)" fill="#B4C83E"/>
<path d="M94.5703 67.6469L108.569 62.8729L113.366 76.9404L99.3678 81.7144L104.142 95.7126L76.145 105.261L71.3475 91.1931L99.3443 81.6452L94.5703 67.6469Z" fill="#485AAE"/>
<path d="M108.569 62.8729L150.564 48.5511L155.361 62.6186L113.366 76.9404L108.569 62.8729Z" fill="#485AAE"/>
<path d="M155.338 62.5492L160.136 76.6166L188.132 67.0689L192.906 81.0676L206.904 76.2936L202.107 62.2262L188.109 67L183.334 53.0013L155.338 62.5492Z" fill="#485AAE"/>
<path d="M76.1215 105.192L62.1231 109.966L66.897 123.964L52.8987 128.738L62.4467 156.735L48.4483 161.509L67.568 217.572L81.5664 212.798L91.1141 240.794L105.112 236.02L109.887 250.019L123.885 245.245L119.088 231.178L105.089 235.952L95.541 207.955L81.5426 212.729L62.4701 156.804L76.4685 152.03L66.9207 124.033L80.919 119.259L76.1215 105.192Z" fill="#485AAE"/>
<path d="M206.881 76.2242L220.879 71.4503L230.427 99.4472L244.426 94.6734L263.545 150.737L249.547 155.51L259.095 183.506L245.096 188.28L235.525 160.215L249.523 155.441L230.451 99.5161L216.453 104.29L206.881 76.2242Z" fill="#485AAE"/>
<path d="M118.44 137.639L132.439 132.865L137.236 146.933L123.238 151.707L118.44 137.639Z" fill="#485AAE"/>
<path d="M174.434 118.543L160.435 123.317L165.233 137.385L179.231 132.611L174.434 118.543Z" fill="#485AAE"/>
<path d="M132.762 179.635L146.761 174.861L151.558 188.928L137.56 193.702L132.762 179.635Z" fill="#485AAE"/>
<path d="M188.756 160.539L174.757 165.313L179.531 179.311L151.535 188.858L156.333 202.926L184.329 193.378L179.555 179.38L193.553 174.606L188.756 160.539Z" fill="#485AAE"/>
<path d="M231.074 192.986L245.073 188.212L249.87 202.28L235.872 207.054L240.646 221.051L212.649 230.599L207.852 216.532L235.848 206.984L231.074 192.986Z" fill="#485AAE"/>
<path d="M123.861 245.176L128.659 259.243L156.656 249.695L161.43 263.694L175.428 258.92L170.63 244.852L156.632 249.626L151.858 235.628L123.861 245.176Z" fill="#485AAE"/>
<path d="M170.63 244.852L212.625 230.53L217.423 244.598L175.428 258.92L170.63 244.852Z" fill="#485AAE"/>
</svg>
